<svg width="34" height="33" viewBox="0 0 34 33" fill="none" xmlns="http://www.w3.org/2000/svg">
<path d="M25.0606 17.2796C25.0606 13.3682 28.3533 11.7343 28.3533 11.7343C28.3533 11.7343 26.2329 8.80566 23.0898 8.80566C20.4407 8.80566 19.4641 10.0529 17.4174 10.0529C15.3856 10.0529 14.2593 8.80566 11.7898 8.80566C8.64669 8.80566 4.64551 11.8527 4.64551 17.2609C4.64551 24.5248 9.73434 30.7323 12.5531 30.7323C13.8451 30.7323 15.3699 29.5203 17.5171 29.5201C19.6127 29.5198 20.9096 30.7315 22.3265 30.7315C23.6137 30.7315 24.7961 30.072 26.667 27.6174C28.5378 25.1628 29.2113 23.0506 29.2113 23.0506C28.7723 22.8908 25.0606 21.1909 25.0606 17.2796Z" fill="black"/>
<path d="M22.5185 2.70746C22.5185 2.50858 22.5081 2.31212 22.4903 2.11768C19.1575 2.32782 16.519 5.09577 16.519 8.48172C16.519 8.6806 16.5295 8.87716 16.5472 9.07138C19.8801 8.86139 22.5185 6.09331 22.5185 2.70746Z" fill="black"/>
</svg>
