<svg width="16" height="16" viewBox="0 0 16 16" fill="none" xmlns="http://www.w3.org/2000/svg">
<g opacity="0.5">
<path fill-rule="evenodd" clip-rule="evenodd" d="M2 7.00009C2 3.68638 4.68629 1 8 1C11.3137 1 14 3.68638 14 7.00009C14 9.66358 12.2645 11.9218 9.86263 12.7054C9.60073 12.7909 9.36626 12.9506 9.21345 13.1798L8.22986 14.6552C8.12051 14.8192 7.87949 14.8192 7.77014 14.6552L6.78655 13.1798C6.63374 12.9506 6.39927 12.7909 6.13737 12.7054C3.73551 11.9218 2 9.66358 2 7.00009ZM8 5C6.89543 5 6 5.89546 6 7.00003C6 8.1046 6.89543 9.00006 8 9.00006C9.10457 9.00006 10 8.1046 10 7.00003C10 5.89546 9.10457 5 8 5Z" fill="black"/>
</g>
</svg>
