<svg width="20" height="20" viewBox="0 0 20 20" fill="none" xmlns="http://www.w3.org/2000/svg">
<circle cx="9.88" cy="9.88" r="9.88" fill="black"/>
<path d="M13.4787 6.70386C13.4759 6.69788 13.4713 6.69339 13.4657 6.69077C12.8172 6.3654 12.133 6.13333 11.4301 6.00056C11.417 5.99794 11.4038 6.00467 11.3975 6.01739C11.3043 6.20233 11.2197 6.39232 11.1441 6.58662C10.3864 6.46077 9.61562 6.46077 8.85788 6.58662C8.7818 6.39176 8.6958 6.20177 8.6004 6.01739C8.59373 6.00486 8.58074 5.99813 8.56775 6.00056C7.86472 6.13314 7.1805 6.36521 6.53218 6.69077C6.52654 6.69339 6.52192 6.69769 6.51885 6.7033C5.22221 8.82107 4.86711 10.8865 5.04133 12.9265C5.04235 12.9366 5.04697 12.9457 5.05432 12.9521C5.80915 13.5634 6.65357 14.0301 7.55133 14.3321C7.56432 14.3364 7.57834 14.3314 7.58638 14.3196C7.77923 14.0326 7.95003 13.7287 8.09724 13.411C8.10134 13.4022 8.10185 13.3919 8.09843 13.3826C8.09519 13.3734 8.08835 13.3661 8.0798 13.3627C7.81035 13.25 7.54945 13.114 7.29966 12.9562C7.29043 12.9502 7.28462 12.9397 7.28393 12.928C7.28325 12.9164 7.28804 12.905 7.29659 12.8978C7.34907 12.8548 7.40088 12.8107 7.45148 12.7651C7.46055 12.7569 7.47303 12.7552 7.4838 12.7604C9.12032 13.5774 10.8922 13.5774 12.5095 12.7604C12.5202 12.7548 12.5329 12.7565 12.5421 12.7647C12.5929 12.8105 12.6447 12.8548 12.6973 12.8978C12.7059 12.905 12.7107 12.916 12.7102 12.9278C12.7097 12.9394 12.7038 12.95 12.6946 12.956C12.4453 13.1151 12.1843 13.2509 11.9141 13.362C11.9056 13.3655 11.8989 13.3728 11.8957 13.3822C11.8924 13.3915 11.8929 13.4018 11.897 13.4106C12.0466 13.7264 12.2173 14.0299 12.4076 14.3187C12.4154 14.3308 12.4296 14.3361 12.4426 14.3316C13.3421 14.0305 14.1879 13.5639 14.9437 12.9515C14.9511 12.9455 14.9559 12.9364 14.9567 12.9263C15.1658 10.5686 14.6079 8.52 13.4787 6.70386ZM8.34172 11.6844C7.84899 11.6844 7.44294 11.1898 7.44294 10.5824C7.44294 9.97505 7.84113 9.48043 8.34172 9.48043C8.84626 9.48043 9.24838 9.97935 9.24034 10.5824C9.24051 11.1898 8.84232 11.6844 8.34172 11.6844ZM11.6647 11.6844C11.172 11.6844 10.7661 11.1898 10.7661 10.5824C10.7661 9.97505 11.1643 9.48043 11.6647 9.48043C12.1692 9.48043 12.5713 9.97935 12.5635 10.5824C12.5633 11.1898 12.1692 11.6844 11.6647 11.6844Z" fill="white"/>
</svg>
