<svg width="16" height="16" viewBox="0 0 16 16" fill="none" xmlns="http://www.w3.org/2000/svg">
<g opacity="0.5">
<path fill-rule="evenodd" clip-rule="evenodd" d="M13.41 9.12823C12.9383 8.48394 12.7024 8.16179 12.6846 8.09283C12.6522 7.96735 12.6522 8.03267 12.6846 7.90719C12.7024 7.83823 12.9383 7.51609 13.41 6.87179C13.781 6.36503 14 5.74001 14 5.06383C14 3.37172 12.6283 2 10.9362 2C10.26 2 9.63497 2.21905 9.1282 2.59007C8.48391 3.06176 8.16177 3.2976 8.09281 3.31541C7.96733 3.34783 8.03264 3.34783 7.90717 3.31542C7.83821 3.2976 7.51606 3.06177 6.87176 2.59009C6.365 2.2191 5.73999 2.00007 5.06383 2.00007C3.37172 2.00007 2 3.37179 2 5.0639C2 5.74013 2.21908 6.3652 2.59015 6.87199C3.06179 7.51617 3.29762 7.83825 3.31543 7.90722C3.34785 8.03269 3.34785 7.9674 3.31543 8.09288C3.29762 8.16184 3.06179 8.48393 2.59015 9.1281C2.21909 9.63489 2.00001 10.26 2.00001 10.9362C2.00001 12.6283 3.37173 14 5.06384 14C5.74002 14 6.36505 13.781 6.87182 13.41C7.5161 12.9383 7.83823 12.7024 7.90719 12.6846C8.03267 12.6522 7.96736 12.6522 8.09284 12.6846C8.1618 12.7024 8.48393 12.9383 9.12821 13.41C9.63498 13.781 10.26 14 10.9362 14C12.6283 14 14 12.6283 14 10.9362C14 10.26 13.781 9.63499 13.41 9.12823ZM7.23028 8.76972C7.58362 9.12305 7.76028 9.29972 7.78656 9.31819C8.0075 9.47352 7.99254 9.47352 8.21348 9.31819C8.23975 9.29972 8.41641 9.12306 8.76974 8.76973C9.12306 8.41641 9.29973 8.23975 9.3182 8.21347C9.47353 7.99253 9.47353 8.00748 9.3182 7.78654C9.29973 7.76027 9.12307 7.58361 8.76975 7.2303C8.41643 6.87699 8.23977 6.70033 8.2135 6.68186C7.99256 6.52653 8.00751 6.52653 7.78657 6.68186C7.7603 6.70033 7.58363 6.877 7.23029 7.23035C6.87698 7.58366 6.70032 7.76031 6.68185 7.78659C6.52654 8.00752 6.52654 7.99258 6.68185 8.2135C6.70033 8.23978 6.87698 8.41642 7.23028 8.76972Z" fill="#16151D"/>
</g>
</svg>
