<svg width="28" height="28" viewBox="0 0 28 28" fill="none" xmlns="http://www.w3.org/2000/svg">
<path d="M14 4.11768C8.54497 4.11768 4.11768 8.54497 4.11768 14C4.11768 19.4551 8.54497 23.8824 14 23.8824C19.4551 23.8824 23.8824 19.4551 23.8824 14C23.8824 8.54497 19.4551 4.11768 14 4.11768ZM18.5854 10.8377C18.4372 12.3991 17.7949 16.1939 17.4687 17.9431C17.3304 18.6843 17.0537 18.9313 16.7967 18.961C16.2236 19.0104 15.7887 18.5854 15.2353 18.2198C14.3657 17.6466 13.8716 17.2909 13.0316 16.7374C12.0532 16.0951 12.6857 15.7393 13.249 15.1661C13.3972 15.0179 15.9271 12.7153 15.9765 12.5078C15.9834 12.4764 15.9825 12.4437 15.9738 12.4127C15.9652 12.3817 15.9492 12.3533 15.9271 12.3299C15.8678 12.2805 15.7887 12.3003 15.7196 12.3101C15.6306 12.3299 14.2471 13.249 11.5492 15.0673C11.1539 15.3341 10.7981 15.4725 10.4819 15.4626C10.1261 15.4527 9.45415 15.265 8.95015 15.097C8.32756 14.8993 7.84332 14.7906 7.88285 14.4447C7.90262 14.2669 8.14968 14.089 8.61415 13.9012C11.4998 12.6461 13.417 11.816 14.3756 11.4207C17.1229 10.2744 17.6861 10.0767 18.0617 10.0767C18.1407 10.0767 18.3285 10.0965 18.4471 10.1953C18.5459 10.2744 18.5756 10.3831 18.5854 10.4621C18.5756 10.5214 18.5953 10.6993 18.5854 10.8377Z" fill="black"/>
</svg>
