<svg width="48" height="48" viewBox="0 0 48 48" fill="none" xmlns="http://www.w3.org/2000/svg">
<rect width="48" height="48" rx="20" fill="#242229"/>
<path fill-rule="evenodd" clip-rule="evenodd" d="M28.7112 12.5334C30.3615 12.5334 31.9441 13.189 33.111 14.3559C34.2779 15.5228 34.9334 17.1054 34.9334 18.7557V28.7112C34.9334 30.3615 34.2779 31.9441 33.111 33.111C31.9441 34.2779 30.3615 34.9334 28.7112 34.9334H18.7557C17.1054 34.9334 15.5228 34.2779 14.3559 33.111C13.189 31.9441 12.5334 30.3615 12.5334 28.7112V18.7557C12.5334 17.1054 13.189 15.5228 14.3559 14.3559C15.5228 13.189 17.1054 12.5334 18.7557 12.5334H28.7112ZM28.7112 15.0223H18.7557C17.7655 15.0223 16.8159 15.4157 16.1158 16.1158C15.4157 16.8159 15.0223 17.7655 15.0223 18.7557V28.7112C15.0223 29.7014 15.4157 30.651 16.1158 31.3511C16.8159 32.0512 17.7655 32.4446 18.7557 32.4446H28.7112C29.7014 32.4446 30.651 32.0512 31.3511 31.3511C32.0512 30.651 32.4446 29.7014 32.4446 28.7112V18.7557C32.4446 17.7655 32.0512 16.8159 31.3511 16.1158C30.651 15.4157 29.7014 15.0223 28.7112 15.0223ZM23.7334 18.7557C25.0536 18.7557 26.3198 19.2801 27.2533 20.2136C28.1868 21.1471 28.7112 22.4133 28.7112 23.7334C28.7112 25.0536 28.1868 26.3198 27.2533 27.2533C26.3198 28.1868 25.0536 28.7112 23.7334 28.7112C22.4133 28.7112 21.1471 28.1868 20.2136 27.2533C19.2801 26.3198 18.7557 25.0536 18.7557 23.7334C18.7557 22.4133 19.2801 21.1471 20.2136 20.2136C21.1471 19.2801 22.4133 18.7557 23.7334 18.7557ZM23.7334 21.2446C23.0734 21.2446 22.4403 21.5068 21.9735 21.9735C21.5068 22.4403 21.2446 23.0734 21.2446 23.7334C21.2446 24.3935 21.5068 25.0266 21.9735 25.4934C22.4403 25.9601 23.0734 26.2223 23.7334 26.2223C24.3935 26.2223 25.0266 25.9601 25.4934 25.4934C25.9601 25.0266 26.2223 24.3935 26.2223 23.7334C26.2223 23.0734 25.9601 22.4403 25.4934 21.9735C25.0266 21.5068 24.3935 21.2446 23.7334 21.2446ZM29.3334 16.889C29.6635 16.889 29.98 17.0201 30.2134 17.2535C30.4468 17.4869 30.5779 17.8034 30.5779 18.1334C30.5779 18.4635 30.4468 18.78 30.2134 19.0134C29.98 19.2468 29.6635 19.3779 29.3334 19.3779C29.0034 19.3779 28.6869 19.2468 28.4535 19.0134C28.2201 18.78 28.089 18.4635 28.089 18.1334C28.089 17.8034 28.2201 17.4869 28.4535 17.2535C28.6869 17.0201 29.0034 16.889 29.3334 16.889Z" fill="white"/>
</svg>
